<svg xmlns="http://www.w3.org/2000/svg" width="1330" height="689" viewBox="0 0 1330 689" version="1.1"><path d="M 113.500 0.707 C 102.592 1.198, 66.714 3.890, 54.250 5.153 L 43 6.293 43 58.146 L 43 110 21.500 110 L 0 110 0 148.500 L 0 187 21.500 187 L 43 187 43 190.500 L 43 194 21.500 194 L 0 194 0 234 L 0 274 21.500 274 L 43 274 43 479.500 L 43 685 87.500 685 L 132 685 132 548.676 L 132 412.351 149.750 411.131 C 237.824 405.075, 314.090 381.499, 361.737 345.599 C 374.124 336.266, 391.705 318.118, 399.623 306.491 C 405.858 297.334, 412.277 285.302, 415.488 276.750 L 417.272 272 447.636 272 L 478 272 478 232 L 478 192 453 192 L 428 192 428 188.017 L 428 184.035 452.750 183.767 L 477.500 183.500 477.762 146.250 L 478.024 109 451.196 109 L 424.368 109 422.154 103.658 C 414.538 85.284, 391.571 61.179, 367.388 46.181 C 325.945 20.477, 269.411 5.584, 196 1.032 C 181.106 0.109, 131.159 -0.088, 113.500 0.707 M 110 15.685 C 94.998 16.543, 62.173 19.097, 59.750 19.595 L 57 20.159 57 72.579 L 57 125 36 125 L 15 125 15 148.500 L 15 172 36 172 L 57 172 57 190 L 57 208 36 208 L 15 208 15 233.500 L 15 259 36 259 L 57 259 57 465 L 57 671 87 671 L 117 671 117 534.590 L 117 398.180 125.250 397.651 C 129.787 397.360, 141.184 396.650, 150.575 396.075 C 189.964 393.659, 231.396 386.264, 267 375.295 C 341.056 352.479, 388.201 314.291, 404.091 264.250 L 406.394 257 434.697 257 L 463 257 463 232 L 463 207 438 207 L 413 207 413 188 L 413 169 438 169 L 463 169 463 146 L 463 123 437.969 123 C 418.784 123, 412.861 122.708, 412.611 121.750 C 408.606 106.393, 402.019 95.863, 387.076 80.934 C 349.545 43.435, 287.907 22.161, 199 16.021 C 185.997 15.123, 123.912 14.889, 110 15.685 M 160 71.936 C 153.125 72.365, 140.637 73.299, 132.250 74.010 L 117 75.304 117 100.152 L 117 125 225.500 125 C 285.175 125, 334 124.710, 334 124.355 C 334 124, 332.437 120.459, 330.526 116.486 C 319.899 94.392, 287.010 79.504, 235.500 73.471 C 220.225 71.682, 177.850 70.820, 160 71.936 M 154 87.039 C 146.575 87.527, 138.588 88.195, 136.250 88.524 L 132 89.123 132 99.561 L 132 110 218.750 109.985 C 278.438 109.974, 305.032 109.649, 304 108.942 C 303.175 108.377, 299.125 106.188, 295 104.077 C 280.789 96.805, 261.651 91.671, 236.631 88.420 C 222.126 86.535, 173.950 85.730, 154 87.039 M 117 191.500 L 117 212 234.500 212 L 352 212 352 191.500 L 352 171 234.500 171 L 117 171 117 191.500 M 132 191 L 132 197 234.500 197 L 337 197 337 191 L 337 185 234.500 185 L 132 185 132 191 M 117 294.652 L 117 332.303 140.750 331.675 C 153.813 331.330, 169.225 330.581, 175 330.012 C 263.837 321.253, 313.338 302.042, 328.571 270.409 C 330.450 266.509, 332.271 261.897, 332.618 260.159 L 333.250 257 225.125 257 L 117 257 117 294.652 M 132 294.981 L 132 317.962 136.250 317.514 C 138.588 317.268, 146.350 316.814, 153.500 316.505 C 189.670 314.944, 234.281 307.946, 260 299.800 C 281.038 293.137, 296.095 285.521, 305.403 276.833 L 310.500 272.076 221.250 272.038 L 132 272 132 294.981" stroke="none" fill="#040404" fill-rule="evenodd"/><path d="M 1092 439.483 L 1092 469 1080.500 469 L 1069 469 1069 491 L 1069 513 1080.500 513 L 1092 513 1092.017 544.250 C 1092.036 577.645, 1092.764 584.690, 1097.070 593.144 C 1102.362 603.535, 1110.926 610.662, 1122.463 614.277 C 1131.976 617.257, 1149.786 617.171, 1161.433 614.088 C 1171.047 611.543, 1183.253 606.072, 1182.640 604.582 C 1181.657 602.195, 1165.696 567.477, 1165.436 567.162 C 1165.283 566.976, 1163.734 567.876, 1161.995 569.162 C 1158.012 572.107, 1150.215 572.409, 1147.258 569.734 C 1143.670 566.486, 1143 561.279, 1143 536.634 L 1143 513 1158 513 L 1173 513 1173 491 L 1173 469 1158.015 469 L 1143.030 469 1142.765 439.750 L 1142.500 410.500 1117.250 410.233 L 1092 409.966 1092 439.483 M 290.601 466.594 C 279.679 469.237, 272.252 473.693, 262.468 483.472 C 247.818 498.116, 241.331 513.633, 240.299 536.500 C 238.629 573.511, 256.979 604.041, 286.716 613.726 C 297.067 617.097, 313.282 617.345, 322.671 614.276 C 331.134 611.509, 342.136 603.950, 348.061 596.830 L 353 590.896 353 601.448 L 353 612 378 612 L 403 612 403 540.500 L 403 469 377.500 469 L 352 469 352 478.009 L 352 487.017 345.750 480.728 C 338.853 473.788, 330.440 468.871, 321.458 466.531 C 314.153 464.628, 298.594 464.660, 290.601 466.594 M 679.105 466.583 C 669.125 469.266, 659.251 476.101, 653.218 484.500 L 651.063 487.500 651.032 478.250 L 651 469 625.500 469 L 600 469 600 540.500 L 600 612 625.447 612 L 650.893 612 651.203 572.750 C 651.502 534.779, 651.586 533.319, 653.755 527.947 C 656.544 521.038, 659.682 516.727, 664.649 512.980 C 673.352 506.417, 687.363 506.638, 697.699 513.501 C 700.718 515.505, 703.307 517, 703.453 516.823 C 704.056 516.088, 721.950 476.115, 722.213 474.914 C 722.601 473.148, 713.729 468.425, 706.475 466.535 C 699.173 464.634, 686.269 464.656, 679.105 466.583 M 784 466.440 C 769.224 469.554, 755.281 477.377, 746.057 487.726 C 739.796 494.750, 733.595 506.530, 730.798 516.713 C 727.719 527.924, 727.751 551.979, 730.862 563.442 C 734.553 577.048, 739.338 585.403, 749.002 595.119 C 755.940 602.093, 759.189 604.518, 766.037 607.830 C 781.532 615.325, 799.489 618.010, 820.849 616.025 C 840.364 614.212, 855.604 608.939, 865.329 600.636 L 869.159 597.367 860.494 582.934 C 855.729 574.995, 851.193 567.502, 850.413 566.282 L 848.996 564.065 843.404 567.982 C 830.081 577.315, 806.420 580.381, 792.525 574.575 C 785.105 571.474, 778.611 563.390, 776.602 554.750 L 775.962 552 825.481 552 L 875 552 874.992 544.250 C 874.948 502.660, 858.966 477.263, 826.984 467.959 C 817.409 465.174, 793.940 464.344, 784 466.440 M 979.272 466.437 C 968.060 469.154, 954.428 477.971, 949.861 485.461 L 948.007 488.500 948.004 478.750 L 948 469 922.500 469 L 897 469 897 540.500 L 897 612 922.432 612 L 947.864 612 948.182 569.750 L 948.500 527.500 951.304 521.500 C 956.697 509.960, 965.594 503.750, 976.733 503.750 C 988.509 503.750, 997.357 511.110, 999.914 523.033 C 1000.598 526.223, 1001 543.634, 1001 570.049 L 1001 612 1026.500 612 L 1052 612 1052 562.660 C 1052 516.585, 1051.868 512.802, 1049.999 505.496 C 1047.526 495.825, 1044.353 490.280, 1036.745 482.332 C 1023.376 468.366, 999.063 461.641, 979.272 466.437 M 1245.831 465.960 C 1225.314 469.699, 1209.275 479.775, 1203.197 492.744 C 1200.820 497.817, 1200.504 499.686, 1200.534 508.500 C 1200.564 517.253, 1200.910 519.239, 1203.311 524.430 C 1210.282 539.499, 1220.162 546.246, 1245.243 553.066 C 1251.254 554.700, 1257.471 556.709, 1259.057 557.530 C 1268.832 562.585, 1268.207 572.299, 1257.840 576.448 C 1252.830 578.452, 1239.469 578.742, 1232.953 576.987 C 1227.562 575.536, 1217.698 570.680, 1213.064 567.197 C 1211.175 565.777, 1209.483 565.039, 1209.306 565.557 C 1209.129 566.076, 1205.393 574.150, 1201.005 583.500 L 1193.027 600.500 1195.245 602.179 C 1199.424 605.342, 1211.499 610.775, 1219.018 612.875 C 1229.266 615.737, 1245.606 617.297, 1256.474 616.451 C 1292.810 613.623, 1312.628 599.725, 1316.057 574.669 C 1317.328 565.382, 1316.044 554.834, 1312.831 548.169 C 1307.363 536.826, 1293.863 528.428, 1272.298 522.954 C 1253.395 518.156, 1247.213 513.937, 1249.533 507.420 C 1250.948 503.445, 1254.696 501.128, 1261.702 499.895 C 1270.474 498.351, 1280.041 500.136, 1290.167 505.204 C 1294.552 507.398, 1298.279 509.038, 1298.450 508.847 C 1298.621 508.656, 1302.421 501.579, 1306.894 493.120 C 1316.125 475.664, 1316.178 476.849, 1306 472.921 C 1292.611 467.753, 1282.163 465.801, 1266 465.448 C 1257.475 465.262, 1248.399 465.492, 1245.831 465.960 M 420.446 470.750 C 420.809 471.712, 433.500 503.685, 448.649 541.799 C 467.253 588.608, 476.009 611.813, 475.627 613.299 C 475.316 614.510, 468.339 630.943, 460.123 649.817 C 450.465 672.004, 445.601 684.293, 446.362 684.585 C 447.008 684.833, 458.540 684.916, 471.986 684.768 L 496.434 684.500 542.180 579 C 567.341 520.975, 588.383 472.488, 588.942 471.250 L 589.957 469 564.702 469 L 539.448 469 521.496 516.469 C 509.058 549.358, 503.284 563.473, 502.697 562.423 C 502.231 561.591, 495.176 541.017, 487.018 516.705 C 478.861 492.392, 471.872 471.712, 471.486 470.750 C 470.845 469.147, 468.638 469, 445.286 469 C 421.416 469, 419.828 469.112, 420.446 470.750 M 793.748 502.366 C 785.694 505.371, 779.920 512.091, 777.950 520.750 L 777.211 524 802.124 524 L 827.038 524 826.440 521.250 C 824.980 514.537, 820.508 507.590, 815.754 504.651 C 810.067 501.135, 799.880 500.077, 793.748 502.366 M 314.734 508.034 C 308.396 509.618, 303.486 512.666, 298.708 517.980 C 292.784 524.569, 290.509 531.123, 290.543 541.500 C 290.587 554.469, 296.367 564.563, 307.181 570.554 C 311.969 573.206, 313.399 573.499, 321.500 573.493 C 331.237 573.485, 335.504 571.976, 341.283 566.497 C 354.470 553.993, 355.313 530.676, 343.080 516.744 C 336.885 509.688, 323.980 505.722, 314.734 508.034" stroke="none" fill="#8c64ac" fill-rule="evenodd"/></svg>